<svg data-v-423bf9ae="" xmlns="http://www.w3.org/2000/svg" viewBox="0 0 485.08796267730884 163" class="iconAbove"><!----><!----><!----><g data-v-423bf9ae="" id="d7b1b4a0-7664-49d8-803f-95440b3e461d" fill="#321E0F" transform="matrix(3.76884420304397,0,0,3.76884420304397,-2.412057684205678,46.80653064667145)"><path d="M11.45 26.49L11.13 27.12L8.44 27.12L5.45 22.18L4.79 21.71L5.03 21.24L5.78 21.24L5.78 21.24Q6.71 21.24 7.23 20.76L7.23 20.76L7.23 20.76Q7.76 20.29 7.76 19.45L7.76 19.45L7.76 19.45Q7.76 18.35 7.16 17.65L7.16 17.65L7.16 17.65Q6.57 16.94 5.42 16.94L5.42 16.94L5.42 16.94Q4.68 16.94 4.03 17.40L4.03 17.40L4.03 26.01L5.52 26.50L5.21 27.13L0.81 27.13L0.81 26.63L2.13 25.59L2.13 17.22L0.64 16.76L0.97 16.13L2.73 16.13L2.73 16.13Q4.00 16.13 5.21 16.04L5.21 16.04L5.21 16.04Q6.10 15.99 6.52 15.99L6.52 15.99L6.52 15.99Q7.49 15.99 8.25 16.37L8.25 16.37L8.25 16.37Q9.00 16.74 9.42 17.40L9.42 17.40L9.42 17.40Q9.83 18.05 9.83 18.82L9.83 18.82L9.83 18.82Q9.83 19.50 9.40 20.13L9.40 20.13L9.40 20.13Q8.97 20.76 8.27 21.24L8.27 21.24L8.27 21.24Q7.57 21.71 6.79 21.97L6.79 21.97L7.74 22.27L9.83 25.72L11.45 26.49ZM19.54 25.23L17.14 27.15L17.14 27.15Q16.53 27.27 15.68 27.27L15.68 27.27L15.68 27.27Q14.74 27.27 13.99 26.79L13.99 26.79L13.99 26.79Q13.24 26.31 12.82 25.48L12.82 25.48L12.82 25.48Q12.39 24.65 12.39 23.65L12.39 23.65L12.39 23.65Q12.39 22.55 13.05 21.61L13.05 21.61L13.05 21.61Q13.72 20.66 14.73 20.10L14.73 20.10L14.73 20.10Q15.74 19.53 16.67 19.53L16.67 19.53L16.67 19.53Q18.03 19.53 18.78 20.59L18.78 20.59L18.78 20.59Q19.53 21.66 19.52 23.44L19.52 23.44L14.36 23.44L14.36 23.44Q14.46 24.56 15.01 25.26L15.01 25.26L15.01 25.26Q15.55 25.97 16.49 25.97L16.49 25.97L16.49 25.97Q17.42 25.97 19.12 24.65L19.12 24.65L19.54 25.23ZM15.88 20.80L15.88 20.80Q14.43 20.80 14.36 22.79L14.36 22.79L17.51 22.79L17.51 22.79Q17.39 22.08 17.26 21.69L17.26 21.69L17.26 21.69Q17.12 21.29 16.80 21.05L16.80 21.05L16.80 21.05Q16.48 20.80 15.86 20.80L15.86 20.80L15.88 20.80ZM28.99 26.50L28.69 27.13L25.91 27.13L25.91 25.91L24.33 27.16L24.33 27.16Q24.05 27.27 23.63 27.27L23.63 27.27L23.63 27.27Q22.40 27.27 21.85 26.66L21.85 26.66L21.85 26.66Q21.31 26.05 21.31 25.19L21.31 25.19L21.31 25.19Q21.31 24.68 21.66 24.19L21.66 24.19L21.66 24.19Q22.01 23.69 22.68 23.24L22.68 23.24L25.91 23.24L25.91 22.48L25.91 22.48Q25.91 20.85 24.16 20.85L24.16 20.85L24.16 20.85Q23.28 20.85 21.95 21.84L21.95 21.84L21.53 21.25L23.53 19.67L23.53 19.67Q24.18 19.53 24.93 19.53L24.93 19.53L24.93 19.53Q26.26 19.53 27.00 20.17L27.00 20.17L27.00 20.17Q27.73 20.82 27.73 22.04L27.73 22.04L27.73 26.01L28.99 26.50ZM24.14 25.94L24.14 25.94Q24.96 25.94 25.91 25.20L25.91 25.20L25.91 23.88L23.48 23.88L23.48 23.88Q23.31 24.09 23.24 24.30L23.24 24.30L23.24 24.30Q23.17 24.51 23.17 24.77L23.17 24.77L23.17 24.77Q23.17 25.26 23.44 25.60L23.44 25.60L23.44 25.60Q23.70 25.94 24.14 25.94L24.14 25.94ZM38.93 26.50L38.61 27.13L35.85 27.13L35.85 26.12L34.54 27.16L34.54 27.16Q34.09 27.27 33.47 27.27L33.47 27.27L33.47 27.27Q32.55 27.27 31.82 26.79L31.82 26.79L31.82 26.79Q31.08 26.31 30.67 25.48L30.67 25.48L30.67 25.48Q30.25 24.65 30.25 23.65L30.25 23.65L30.25 23.65Q30.25 22.55 30.92 21.61L30.92 21.61L30.92 21.61Q31.58 20.66 32.59 20.10L32.59 20.10L32.59 20.10Q33.60 19.53 34.54 19.53L34.54 19.53L34.54 19.53Q35.25 19.53 35.85 19.95L35.85 19.95L35.85 17.22L34.61 16.35L34.61 15.85L37.07 14.91L37.67 14.91L37.67 26.04L38.93 26.50ZM34.23 25.94L34.23 25.94Q34.65 25.94 35.03 25.83L35.03 25.83L35.03 25.83Q35.41 25.72 35.87 25.41L35.87 25.41L35.87 22.32L35.87 22.32Q35.78 21.64 35.23 21.22L35.23 21.22L35.23 21.22Q34.68 20.80 33.73 20.80L33.73 20.80L33.73 20.80Q32.21 20.80 32.21 22.97L32.21 22.97L32.21 22.97Q32.21 24.25 32.73 25.10L32.73 25.10L32.73 25.10Q33.25 25.94 34.22 25.94L34.22 25.94L34.23 25.94ZM47.52 19.67L47.52 20.17L43.97 27.13L40.98 30.83L40.38 30.35L40.38 30.35Q41.15 29.50 41.56 28.85L41.56 28.85L41.56 28.85Q41.97 28.21 42.14 27.57L42.14 27.57L42.14 27.57Q42.31 26.92 42.32 26.05L42.32 26.05L40.60 21.85L39.28 21.08L39.28 20.58L41.82 19.40L42.35 21.52L44.03 25.59L45.95 21.66L44.06 20.30L44.37 19.67L47.52 19.67ZM58.77 24.68L58.77 24.68Q58.77 24.25 58.42 23.87L58.42 23.87L58.42 23.87Q58.07 23.49 57.55 23.18L57.55 23.18L57.55 23.18Q57.04 22.86 56.15 22.40L56.15 22.40L56.15 22.40Q55.10 21.85 54.45 21.45L54.45 21.45L54.45 21.45Q53.80 21.04 53.35 20.49L53.35 20.49L53.35 20.49Q52.89 19.94 52.89 19.26L52.89 19.26L52.89 19.26Q52.89 18.56 53.49 17.76L53.49 17.76L53.49 17.76Q54.08 16.95 54.95 16.40L54.95 16.40L54.95 16.40Q55.82 15.85 56.55 15.85L56.55 15.85L56.55 15.85Q57.43 15.85 58.60 16.06L58.60 16.06L58.60 16.06Q59.77 16.27 60.31 16.51L60.31 16.51L60.31 19.29L59.63 19.29L59.63 19.29Q58.97 18.16 58.17 17.53L58.17 17.53L58.17 17.53Q57.37 16.90 56.49 16.90L56.49 16.90L56.49 16.90Q55.73 16.90 55.30 17.37L55.30 17.37L55.30 17.37Q54.87 17.84 54.87 18.58L54.87 18.58L54.87 18.58Q54.87 19.04 55.22 19.44L55.22 19.44L55.22 19.44Q55.58 19.84 56.11 20.16L56.11 20.16L56.11 20.16Q56.64 20.48 57.54 20.94L57.54 20.94L57.54 20.94Q58.60 21.50 59.23 21.90L59.23 21.90L59.23 21.90Q59.85 22.29 60.29 22.82L60.29 22.82L60.29 22.82Q60.73 23.35 60.73 24.01L60.73 24.01L60.73 24.01Q60.73 24.71 60.09 25.52L60.09 25.52L60.09 25.52Q59.46 26.32 58.53 26.87L58.53 26.87L58.53 26.87Q57.61 27.43 56.85 27.43L56.85 27.43L56.85 27.43Q55.93 27.43 54.66 27.22L54.66 27.22L54.66 27.22Q53.38 27.01 52.82 26.77L52.82 26.77L52.82 23.98L53.51 23.98L53.51 23.98Q54.21 25.12 55.10 25.75L55.10 25.75L55.10 25.75Q55.99 26.38 56.92 26.38L56.92 26.38L56.92 26.38Q57.48 26.38 57.90 26.14L57.90 26.14L57.90 26.14Q58.32 25.90 58.55 25.52L58.55 25.52L58.55 25.52Q58.77 25.13 58.77 24.68L58.77 24.68ZM69.75 25.23L67.34 27.15L67.34 27.15Q66.74 27.27 65.88 27.27L65.88 27.27L65.88 27.27Q64.95 27.27 64.20 26.79L64.20 26.79L64.20 26.79Q63.45 26.31 63.02 25.48L63.02 25.48L63.02 25.48Q62.59 24.65 62.59 23.65L62.59 23.65L62.59 23.65Q62.59 22.55 63.26 21.61L63.26 21.61L63.26 21.61Q63.92 20.66 64.93 20.10L64.93 20.10L64.93 20.10Q65.94 19.53 66.88 19.53L66.88 19.53L66.88 19.53Q68.24 19.53 68.98 20.59L68.98 20.59L68.98 20.59Q69.73 21.66 69.72 23.44L69.72 23.44L64.57 23.44L64.57 23.44Q64.67 24.56 65.21 25.26L65.21 25.26L65.21 25.26Q65.76 25.97 66.70 25.97L66.70 25.97L66.70 25.97Q67.62 25.97 69.33 24.65L69.33 24.65L69.75 25.23ZM66.08 20.80L66.08 20.80Q64.64 20.80 64.57 22.79L64.57 22.79L67.72 22.79L67.72 22.79Q67.59 22.08 67.46 21.69L67.46 21.69L67.46 21.69Q67.33 21.29 67.00 21.05L67.00 21.05L67.00 21.05Q66.68 20.80 66.07 20.80L66.07 20.80L66.08 20.80ZM76.99 26.04L75.57 27.16L75.57 27.16Q75.22 27.27 74.72 27.27L74.72 27.27L74.72 27.27Q73.51 27.27 72.96 26.66L72.96 26.66L72.96 26.66Q72.41 26.05 72.41 24.78L72.41 24.78L72.41 20.73L70.90 20.73L70.90 20.13L73.63 17.00L74.23 17.00L74.23 20.09L76.75 20.09L76.75 20.73L74.23 20.73L74.23 24.89L74.23 24.89Q74.23 26.00 75.32 26.00L75.32 26.00L75.32 26.00Q75.61 26.00 75.88 25.88L75.88 25.88L75.88 25.88Q76.15 25.76 76.57 25.45L76.57 25.45L76.99 26.04ZM89.07 21.20L89.07 21.20Q90.12 21.52 90.73 22.25L90.73 22.25L90.73 22.25Q91.34 22.99 91.34 23.93L91.34 23.93L91.34 23.93Q91.34 24.81 90.61 25.59L90.61 25.59L90.61 25.59Q89.89 26.36 88.82 26.82L88.82 26.82L88.82 26.82Q87.75 27.29 86.79 27.29L86.79 27.29L86.79 27.29Q86.09 27.29 85.41 27.22L85.41 27.22L85.41 27.22Q84.29 27.15 83.68 27.15L83.68 27.15L81.83 27.15L81.83 26.64L83.15 25.61L83.15 17.22L81.66 16.76L81.98 16.13L83.66 16.13L83.66 16.13Q84.94 16.13 86.17 16.04L86.17 16.04L86.17 16.04Q87.12 15.99 87.57 15.99L87.57 15.99L87.57 15.99Q88.52 15.99 89.25 16.35L89.25 16.35L89.25 16.35Q89.98 16.72 90.38 17.34L90.38 17.34L90.38 17.34Q90.78 17.96 90.78 18.73L90.78 18.73L90.78 18.73Q90.78 19.43 90.31 20.08L90.31 20.08L90.31 20.08Q89.84 20.72 89.07 21.18L89.07 21.18L89.07 21.20ZM88.72 19.42L88.72 19.42Q88.72 18.34 88.15 17.65L88.15 17.65L88.15 17.65Q87.58 16.97 86.48 16.97L86.48 16.97L86.48 16.97Q85.71 16.97 85.05 17.40L85.05 17.40L85.05 21.10L86.97 21.10L86.97 21.10Q87.79 21.10 88.26 20.66L88.26 20.66L88.26 20.66Q88.72 20.23 88.72 19.42L88.72 19.42ZM87.18 26.19L87.18 26.19Q88.14 26.19 88.71 25.70L88.71 25.70L88.71 25.70Q89.28 25.21 89.28 24.39L89.28 24.39L89.28 24.39Q89.28 23.32 88.66 22.67L88.66 22.67L88.66 22.67Q88.05 22.01 86.84 21.97L86.84 21.97L86.84 21.97Q86.74 21.98 86.58 21.98L86.58 21.98L85.05 21.98L85.05 25.83L85.05 25.83Q85.95 26.18 87.18 26.18L87.18 26.18L87.18 26.19ZM100.58 26.50L100.27 27.13L97.50 27.13L97.50 25.91L95.91 27.16L95.91 27.16Q95.63 27.27 95.21 27.27L95.21 27.27L95.21 27.27Q93.98 27.27 93.44 26.66L93.44 26.66L93.44 26.66Q92.89 26.05 92.89 25.19L92.89 25.19L92.89 25.19Q92.89 24.68 93.24 24.19L93.24 24.19L93.24 24.19Q93.59 23.69 94.26 23.24L94.26 23.24L97.50 23.24L97.50 22.48L97.50 22.48Q97.50 20.85 95.75 20.85L95.75 20.85L95.75 20.85Q94.86 20.85 93.53 21.84L93.53 21.84L93.11 21.25L95.12 19.67L95.12 19.67Q95.76 19.53 96.52 19.53L96.52 19.53L96.52 19.53Q97.85 19.53 98.58 20.17L98.58 20.17L98.58 20.17Q99.32 20.82 99.32 22.04L99.32 22.04L99.32 26.01L100.58 26.50ZM95.72 25.94L95.72 25.94Q96.54 25.94 97.50 25.20L97.50 25.20L97.50 23.88L95.06 23.88L95.06 23.88Q94.89 24.09 94.82 24.30L94.82 24.30L94.82 24.30Q94.75 24.51 94.75 24.77L94.75 24.77L94.75 24.77Q94.75 25.26 95.02 25.60L95.02 25.60L95.02 25.60Q95.28 25.94 95.72 25.94L95.72 25.94ZM104.43 26.05L105.69 26.52L105.36 27.15L101.36 27.15L101.36 26.64L102.61 25.65L102.61 17.22L101.36 16.35L101.36 15.85L103.82 14.91L104.43 14.91L104.43 26.05ZM110.47 26.52L110.17 27.15L107.69 27.15L105.13 23.44L107.72 21.28L106.30 20.31L106.61 19.68L110.10 19.68L110.10 20.19L106.90 22.86L109.17 26.03L110.47 26.52ZM118.76 25.23L116.35 27.15L116.35 27.15Q115.75 27.27 114.90 27.27L114.90 27.27L114.90 27.27Q113.96 27.27 113.21 26.79L113.21 26.79L113.21 26.79Q112.46 26.31 112.04 25.48L112.04 25.48L112.04 25.48Q111.61 24.65 111.61 23.65L111.61 23.65L111.61 23.65Q111.61 22.55 112.27 21.61L112.27 21.61L112.27 21.61Q112.94 20.66 113.95 20.10L113.95 20.10L113.95 20.10Q114.95 19.53 115.89 19.53L115.89 19.53L115.89 19.53Q117.25 19.53 118.00 20.59L118.00 20.59L118.00 20.59Q118.75 21.66 118.73 23.44L118.73 23.44L113.58 23.44L113.58 23.44Q113.68 24.56 114.23 25.26L114.23 25.26L114.23 25.26Q114.77 25.97 115.71 25.97L115.71 25.97L115.71 25.97Q116.63 25.97 118.34 24.65L118.34 24.65L118.76 25.23ZM115.09 20.80L115.09 20.80Q113.65 20.80 113.58 22.79L113.58 22.79L116.73 22.79L116.73 22.79Q116.61 22.08 116.47 21.69L116.47 21.69L116.47 21.69Q116.34 21.29 116.02 21.05L116.02 21.05L116.02 21.05Q115.70 20.80 115.08 20.80L115.08 20.80L115.09 20.80ZM129.35 26.50L129.02 27.13L126.27 27.13L126.27 26.12L124.95 27.16L124.95 27.16Q124.50 27.27 123.89 27.27L123.89 27.27L123.89 27.27Q122.96 27.27 122.23 26.79L122.23 26.79L122.23 26.79Q121.49 26.31 121.08 25.48L121.08 25.48L121.08 25.48Q120.67 24.65 120.67 23.65L120.67 23.65L120.67 23.65Q120.67 22.55 121.33 21.61L121.33 21.61L121.33 21.61Q122.00 20.66 123.00 20.10L123.00 20.10L123.00 20.10Q124.01 19.53 124.95 19.53L124.95 19.53L124.95 19.53Q125.66 19.53 126.27 19.95L126.27 19.95L126.27 17.22L125.02 16.35L125.02 15.85L127.48 14.91L128.09 14.91L128.09 26.04L129.35 26.50ZM124.64 25.94L124.64 25.94Q125.06 25.94 125.44 25.83L125.44 25.83L125.44 25.83Q125.82 25.72 126.28 25.41L126.28 25.41L126.28 22.32L126.28 22.32Q126.20 21.64 125.64 21.22L125.64 21.22L125.64 21.22Q125.09 20.80 124.14 20.80L124.14 20.80L124.14 20.80Q122.63 20.80 122.63 22.97L122.63 22.97L122.63 22.97Q122.63 24.25 123.14 25.10L123.14 25.10L123.14 25.10Q123.66 25.94 124.63 25.94L124.63 25.94L124.64 25.94Z"></path></g><defs data-v-423bf9ae=""><linearGradient data-v-423bf9ae="" gradientTransform="rotate(25)" id="7d067c60-3121-450c-8a9b-37e68ac65f10" x1="0%" y1="0%" x2="100%" y2="0%"><stop data-v-423bf9ae="" offset="0%" style="stop-color: rgb(218, 110, 42); stop-opacity: 1;"></stop><stop data-v-423bf9ae="" offset="100%" style="stop-color: rgb(227, 158, 90); stop-opacity: 1;"></stop></linearGradient></defs><g data-v-423bf9ae="" id="463421f7-85ea-4d59-85bd-41bce3d1ba11" transform="matrix(2.026570773248911,0,0,2.026570773248911,141.22248142228895,-55.32309170663645)" stroke="none" fill="url(#7d067c60-3121-450c-8a9b-37e68ac65f10)"><path d="M88.031 57.629c.443-.023 1.298.137 2.053.426L83.497 72H16.93l-6.452-13.65c.986-.465 1.851-.809 2.627-1.404 1.057-.814 2.055-1.582 3.059-1.668.77-.066.961.104 1.739.92.369.386.829.867 1.434 1.328 1.823 1.388 3.397 2.078 6.037 1.509 1.014-.22 1.843-.983 2.72-1.792 1.935-1.784 3.604-3.32 6.879-.956 2.295 1.657 5.167 2.454 7.677 2.128 1.865-.241 2.988-1.141 3.98-1.934.55-.44 1.069-.855 1.699-1.131.963-.424 1.308-.225 2.497.881 1.281 1.195 3.426 3.195 7.13.928 1.619-.991 4.101-1.825 5.694-1.504.666.137 1.242.609 1.912 1.156.904.742 2.029 1.666 3.65 1.821 2.284.213 4.086-1.071 5.676-2.206 2.329-1.667 3.442-2.335 5.402-.693.229.19.486.6.734.994.613.972 1.539 2.438 3.399 2.539.058.004.116.006.175.006 1.098 0 1.924-.573 2.535-.996.342-.235.689-.635.898-.647zm6.418-2.009a11.07 11.07 0 0 1-.865.409c-.372.158-1.609-.314-2.35-.598-1.111-.424-2.26-.863-3.391-.797-1.091.064-1.906.631-2.503 1.043-.231.158-.618.428-.743.434-.232-.012-.589-.573-.902-1.07-.36-.573-.771-1.221-1.375-1.729-3.913-3.283-7.137-.979-9.27.545-1.25.894-2.423 1.737-3.537 1.629-.632-.059-1.152-.463-1.951-1.117-.826-.678-1.853-1.518-3.285-1.809-2.694-.547-5.979.687-7.973 1.905-1.656 1.015-2.113.591-3.328-.545-1.178-1.099-2.96-2.76-5.916-1.465-1.009.442-1.75 1.036-2.404 1.56-.827.661-1.426 1.14-2.414 1.267-2.046.266-4.141-.628-5.423-1.556-5.366-3.877-8.945-.58-10.866 1.192-.436.401-1.031.951-1.248 1.026-1.508.326-2.125.082-3.457-.932-.407-.312-.727-.646-1.063-.996-.888-.931-1.987-2.086-4.293-1.89-1.925.167-3.407 1.308-4.713 2.312-1.624 1.25-2.604 1.94-3.919 1.539a4.78 4.78 0 0 1-1.71-.956c1.096-2.834 3.685-5.402 7.412-7.591 3.12-11.67 18.604-19.84 37.251-19.84 18.895 0 34.549 8.384 37.379 20.302 3.569 2.244 5.97 4.857 6.857 7.728zM38.018 34.763s-4.014 2.05-2.774 3.011c1.238.958 3.364-2.91 2.774-3.011zm12.474 1.092s-1.912 4.331 0 4.637c1.91.306.637-4.842 0-4.637zm11.671-.496s2.014 3.605 3.496 2.802c1.486-.803-3.232-3.255-3.496-2.802z"></path></g><!----></svg>